P1
8 2
01111111
11111110
