P1
8 2
10000000
00000001
