P1
8 3
11100011
00011010
00000000
