P1
8 3
11100011
00111111
00000010
