P1
8 3
11111111
00000111
00000010
