P1
8 3
01100000
00111110
00000000
