P1
8 2
00001100
01010100
