P1
8 2
00001000
11111110
