P1
8 8
10000000
00010000
00000010
10000000
00001000
00000001
00010000
00000001
