P1
12 3
000010100000
100011111110
000000000000
