P1
8 3
11110000
00001111
00100000
